HIERARCHY
ROOT Hips
{
  OFFSET 5.72205e-005 65.662 3.42586
  CHANNELS 6 Xposition Yposition Zposition Zrotation Xrotation Yrotation
  JOINT Chest
  {
    OFFSET 0 8.7983 -4.7612
    CHANNELS 6 Xposition Yposition Zposition Zrotation Xrotation Yrotation
    JOINT Chest2
    {
      OFFSET 0 8.0291 0.4195
      CHANNELS 6 Xposition Yposition Zposition Zrotation Xrotation Yrotation
      JOINT Chest3
      {
        OFFSET 0 9.9351 -2.2114
        CHANNELS 6 Xposition Yposition Zposition Zrotation Xrotation Yrotation
        JOINT Neck
        {
          OFFSET 0 22.3885 -0.4656
          CHANNELS 6 Xposition Yposition Zposition Zrotation Xrotation Yrotation
          JOINT Head
          {
            OFFSET -0.0001 12.643 3.4389
            CHANNELS 6 Xposition Yposition Zposition Zrotation Xrotation Yrotation
            End Site
            {
              OFFSET 0.0001 17.6655 0.5274
            }
          }
        }
        JOINT LeftCollar
        {
          OFFSET 2.2603 21.606 7.4023
          CHANNELS 6 Xposition Yposition Zposition Zrotation Xrotation Yrotation
          JOINT LeftShoulder
          {
            OFFSET 13.5163 -1.1332 -5.0146
            CHANNELS 6 Xposition Yposition Zposition Zrotation Xrotation Yrotation
            JOINT LeftElbow
            {
              OFFSET -0.0995 -28.05 -0.2431
              CHANNELS 6 Xposition Yposition Zposition Zrotation Xrotation Yrotation
              JOINT LeftWrist
              {
                OFFSET 0.0679 -23.3996 -0.1402
                CHANNELS 6 Xposition Yposition Zposition Zrotation Xrotation Yrotation
                JOINT LeftFinger1
                {
                  OFFSET 0.7932 -9.069 2.5189
                  CHANNELS 6 Xposition Yposition Zposition Zrotation Xrotation Yrotation
                  JOINT LeftFinger11
                  {
                    OFFSET -0.8272 -3.3923 0.5977
                    CHANNELS 6 Xposition Yposition Zposition Zrotation Xrotation Yrotation
                    JOINT LeftFinger12
                    {
                      OFFSET -0.5649 -2.3158 0.4082
                      CHANNELS 6 Xposition Yposition Zposition Zrotation Xrotation Yrotation
                      End Site
                      {
                        OFFSET -0.4919 -1.6479 0.2673
                      }
                    }
                  }
                }
                JOINT LeftFinger2
                {
                  OFFSET 0.9159 -9.2044 0.2193
                  CHANNELS 6 Xposition Yposition Zposition Zrotation Xrotation Yrotation
                  JOINT LeftFinger21
                  {
                    OFFSET 0.0117 -4.1944 -0.0248
                    CHANNELS 6 Xposition Yposition Zposition Zrotation Xrotation Yrotation
                    JOINT LeftFinger22
                    {
                      OFFSET 0.0071 -2.3249 -0.0142
                      CHANNELS 6 Xposition Yposition Zposition Zrotation Xrotation Yrotation
                      End Site
                      {
                        OFFSET -0.1475 -2.0882 0.0028
                      }
                    }
                  }
                }
                JOINT LeftFinger3
                {
                  OFFSET 0.6113 -8.7231 -2.0637
                  CHANNELS 6 Xposition Yposition Zposition Zrotation Xrotation Yrotation
                  JOINT LeftFinger31
                  {
                    OFFSET -0.1927 -3.8059 -0.2383
                    CHANNELS 6 Xposition Yposition Zposition Zrotation Xrotation Yrotation
                    JOINT LeftFinger32
                    {
                      OFFSET -0.1091 -2.1688 -0.1362
                      CHANNELS 6 Xposition Yposition Zposition Zrotation Xrotation Yrotation
                      End Site
                      {
                        OFFSET -0.2358 -1.9176 -0.0906
                      }
                    }
                  }
                }
                JOINT LeftFinger4
                {
                  OFFSET -0.6151 -8.0947 -3.5641
                  CHANNELS 6 Xposition Yposition Zposition Zrotation Xrotation Yrotation
                  JOINT LeftFinger41
                  {
                    OFFSET -0.4882 -2.341 -0.6462
                    CHANNELS 6 Xposition Yposition Zposition Zrotation Xrotation Yrotation
                    JOINT LeftFinger42
                    {
                      OFFSET -0.3575 -1.7167 -0.4742
                      CHANNELS 6 Xposition Yposition Zposition Zrotation Xrotation Yrotation
                      End Site
                      {
                        OFFSET -0.4187 -1.5237 -0.3496
                      }
                    }
                  }
                }
                JOINT LeftFinger0
                {
                  OFFSET -1.42 -1.8761 1.4223
                  CHANNELS 6 Xposition Yposition Zposition Zrotation Xrotation Yrotation
                  JOINT LeftFinger01
                  {
                    OFFSET -1.1471 -3.4929 2.6334
                    CHANNELS 6 Xposition Yposition Zposition Zrotation Xrotation Yrotation
                    JOINT LeftFinger02
                    {
                      OFFSET -0.823 -2.3 1.6571
                      CHANNELS 6 Xposition Yposition Zposition Zrotation Xrotation Yrotation
                      End Site
                      {
                        OFFSET -0.5822 -1.6914 1.1582
                      }
                    }
                  }
                }
              }
            }
          }
        }
        JOINT RightCollar
        {
          OFFSET -2.2603 21.606 7.4023
          CHANNELS 6 Xposition Yposition Zposition Zrotation Xrotation Yrotation
          JOINT RightShoulder
          {
            OFFSET -13.5187 -1.1334 -5.0155
            CHANNELS 6 Xposition Yposition Zposition Zrotation Xrotation Yrotation
            JOINT RightElbow
            {
              OFFSET 0.0994 -28.0499 -0.2431
              CHANNELS 6 Xposition Yposition Zposition Zrotation Xrotation Yrotation
              JOINT RightWrist
              {
                OFFSET -0.0679 -23.3996 -0.1402
                CHANNELS 6 Xposition Yposition Zposition Zrotation Xrotation Yrotation
                JOINT RightFinger1
                {
                  OFFSET -0.7932 -9.0691 2.5189
                  CHANNELS 6 Xposition Yposition Zposition Zrotation Xrotation Yrotation
                  JOINT RightFinger11
                  {
                    OFFSET 0.8272 -3.3923 0.5977
                    CHANNELS 6 Xposition Yposition Zposition Zrotation Xrotation Yrotation
                    JOINT RightFinger12
                    {
                      OFFSET 0.565 -2.3158 0.4082
                      CHANNELS 6 Xposition Yposition Zposition Zrotation Xrotation Yrotation
                      End Site
                      {
                        OFFSET 0.4919 -1.6479 0.2673
                      }
                    }
                  }
                }
                JOINT RightFinger2
                {
                  OFFSET -0.916 -9.2044 0.2193
                  CHANNELS 6 Xposition Yposition Zposition Zrotation Xrotation Yrotation
                  JOINT RightFinger21
                  {
                    OFFSET -0.0117 -4.1944 -0.0248
                    CHANNELS 6 Xposition Yposition Zposition Zrotation Xrotation Yrotation
                    JOINT RightFinger22
                    {
                      OFFSET -0.0071 -2.3249 -0.0142
                      CHANNELS 6 Xposition Yposition Zposition Zrotation Xrotation Yrotation
                      End Site
                      {
                        OFFSET 0.1475 -2.0882 0.0028
                      }
                    }
                  }
                }
                JOINT RightFinger3
                {
                  OFFSET -0.6113 -8.7231 -2.0637
                  CHANNELS 6 Xposition Yposition Zposition Zrotation Xrotation Yrotation
                  JOINT RightFinger31
                  {
                    OFFSET 0.1927 -3.8059 -0.2383
                    CHANNELS 6 Xposition Yposition Zposition Zrotation Xrotation Yrotation
                    JOINT RightFinger32
                    {
                      OFFSET 0.1091 -2.1688 -0.1362
                      CHANNELS 6 Xposition Yposition Zposition Zrotation Xrotation Yrotation
                      End Site
                      {
                        OFFSET 0.2358 -1.9176 -0.0906
                      }
                    }
                  }
                }
                JOINT RightFinger4
                {
                  OFFSET 0.6151 -8.0947 -3.564
                  CHANNELS 6 Xposition Yposition Zposition Zrotation Xrotation Yrotation
                  JOINT RightFinger41
                  {
                    OFFSET 0.4882 -2.341 -0.6462
                    CHANNELS 6 Xposition Yposition Zposition Zrotation Xrotation Yrotation
                    JOINT RightFinger42
                    {
                      OFFSET 0.3574 -1.7166 -0.4742
                      CHANNELS 6 Xposition Yposition Zposition Zrotation Xrotation Yrotation
                      End Site
                      {
                        OFFSET 0.4187 -1.5237 -0.3496
                      }
                    }
                  }
                }
                JOINT RightFinger0
                {
                  OFFSET 1.4199 -1.8761 1.4221
                  CHANNELS 6 Xposition Yposition Zposition Zrotation Xrotation Yrotation
                  JOINT RightFinger01
                  {
                    OFFSET 1.1472 -3.4929 2.6336
                    CHANNELS 6 Xposition Yposition Zposition Zrotation Xrotation Yrotation
                    JOINT RightFinger02
                    {
                      OFFSET 0.8229 -2.3 1.6571
                      CHANNELS 6 Xposition Yposition Zposition Zrotation Xrotation Yrotation
                      End Site
                      {
                        OFFSET 0.5822 -1.6914 1.1582
                      }
                    }
                  }
                }
              }
            }
          }
        }
      }
    }
  }
  JOINT RightHip
  {
    OFFSET -9.412 3.9771 -0.7758
    CHANNELS 6 Xposition Yposition Zposition Zrotation Xrotation Yrotation
    JOINT RightKnee
    {
      OFFSET -0.7531 -40.938 0
      CHANNELS 6 Xposition Yposition Zposition Zrotation Xrotation Yrotation
      JOINT RightAnkle
      {
        OFFSET 0 -40.1986 0
        CHANNELS 6 Xposition Yposition Zposition Zrotation Xrotation Yrotation
        JOINT RightToe
        {
          OFFSET 0 -4.4182 9.239
          CHANNELS 6 Xposition Yposition Zposition Zrotation Xrotation Yrotation
          End Site
          {
            OFFSET 0 0 6.1981
          }
        }
      }
    }
  }
  JOINT LeftHip
  {
    OFFSET 9.4119 3.9773 -0.7758
    CHANNELS 6 Xposition Yposition Zposition Zrotation Xrotation Yrotation
    JOINT LeftKnee
    {
      OFFSET 0.7532 -40.9383 0
      CHANNELS 6 Xposition Yposition Zposition Zrotation Xrotation Yrotation
      JOINT LeftAnkle
      {
        OFFSET 0 -40.1986 0
        CHANNELS 6 Xposition Yposition Zposition Zrotation Xrotation Yrotation
        JOINT LeftToe
        {
          OFFSET 0 -4.4182 9.239
          CHANNELS 6 Xposition Yposition Zposition Zrotation Xrotation Yrotation
          End Site
          {
            OFFSET 0 0 6.1981
          }
        }
      }
    }
  }
}
MOTION
Frames:	4
Frame Time:	0.0333333
0.0019231 -0.269547 -62.0983 -180 -89.9981 -180 2.1684e-019 8.7983 -4.7612 -0.0627306 8.59698 -0.108089 -1.38778e-017 8.0291 0.4195 -0.110745 17.1941 -0.210149 -5.55112e-017 9.9351 -2.2114 -0.110745 17.1942 -0.210149 0 22.3885 -0.4656 9.57617e-007 -11.0599 1.16395e-006 -0.0001 12.643 3.4389 5.43974e-008 -26.9219 8.24364e-008 2.2603 21.606 7.4023 -2.80083 2.04375 -2.68451 13.5163 -1.1332 -5.0146 7.33249 33.8965 23.5644 -0.0995 -28.05 -0.2431 -32.3376 -71.2847 -59.2574 0.0679 -23.3996 -0.1402 -4.87398 -1.47381 -24.0847 0.7932 -9.069 2.5189 7.95139e-016 -1.59028e-015 -4.96962e-016 -0.8272 -3.3923 0.5977 -1.37935e-032 -1.59028e-015 -4.96962e-016 -0.5649 -2.3158 0.4082 -1.59028e-015 1.59028e-015 -7.45443e-016 0.9159 -9.2044 0.2193 7.95139e-016 -1.59028e-015 -4.96962e-016 0.0117 -4.1944 -0.0248 -0.0128213 0.00232157 8.92177e-005 0.0071 -2.3249 -0.0142 1.42006e-006 -2.30419e-006 2.38536e-006 0.6113 -8.7231 -2.0637 7.95139e-016 -1.59028e-015 -4.96962e-016 -0.1927 -3.8059 -0.2383 -0.016065 0.00299683 0.000858592 -0.1091 -2.1688 -0.1362 3.97569e-016 1.59028e-015 -3.23025e-015 -0.6151 -8.0947 -3.5641 7.95139e-016 -1.59028e-015 -4.96962e-016 -0.4882 -2.341 -0.6462 -0.0125794 0.00311843 0.00282378 -0.3575 -1.7167 -0.4742 -1.98785e-015 1.43125e-014 5.81445e-015 -1.42 -1.8761 1.4223 7.95139e-016 -1.59028e-015 -4.96962e-016 -1.1471 -3.4929 2.6334 -1.37935e-032 -1.59028e-015 -4.96962e-016 -0.823 -2.3 1.6571 -1.59028e-015 1.59028e-015 -7.45443e-016 -2.2603 21.606 7.4023 1.87762 2.59149 -3.33282 -13.5187 -1.1334 -5.0155 -9.92539 34.208 -16.991 0.0994 -28.0499 -0.2431 24.7857 -72.6795 51.3098 -0.0679 -23.3996 -0.1402 4.77182 -2.39258 24.5613 -0.7932 -9.0691 2.5189 7.95139e-016 -4.77083e-015 -5.06901e-015 0.8272 -3.3923 0.5977 9.03991e-006 8.81238e-006 -6.14406e-007 0.565 -2.3158 0.4082 1.59028e-015 1.59028e-015 -4.17448e-015 -0.916 -9.2044 0.2193 7.95139e-016 -4.77083e-015 -5.06901e-015 -0.0117 -4.1944 -0.0248 0.0129702 0.00233113 -8.11866e-005 -0.0071 -2.3249 -0.0142 1.59028e-015 0 -1.16289e-014 -0.6113 -8.7231 -2.0637 7.95139e-016 -4.77083e-015 -5.06901e-015 0.1927 -3.8059 -0.2383 0.01633 0.00304235 -0.000869171 0.1091 -2.1688 -0.1362 1.59028e-015 1.59028e-015 -6.16232e-015 0.6151 -8.0947 -3.564 7.95139e-016 -4.77083e-015 -5.06901e-015 0.4882 -2.341 -0.6462 0.0146186 0.00369442 -0.00326675 0.3574 -1.7166 -0.4742 -2.38542e-015 -3.18055e-015 2.28602e-015 1.4199 -1.8761 1.4221 7.95139e-016 -4.77083e-015 -5.06901e-015 1.1472 -3.4929 2.6336 9.03991e-006 8.81238e-006 -6.14406e-007 0.8229 -2.3 1.6571 1.59028e-015 1.59028e-015 -4.17448e-015 -9.412 3.9771 -0.7758 -34.3984 -38.9155 2.00008 -0.7531 -40.938 0 171.234 75.037 -173.534 0 -40.1986 0 0.803874 11.254 -7.00043 7.10543e-015 -4.4182 9.239 4.15917e-007 3.84574e-007 -9.23482e-008 9.4119 3.9773 -0.7758 35.4079 -38.8943 -0.864182 0.7532 -40.9383 0 -171.235 75.0387 173.526 7.10543e-015 -40.1986 3.55272e-015 0.084334 11.224 6.35006 7.10543e-015 -4.4182 9.239 -9.83235e-007 1.59807e-006 2.77306e-006 
0.00200414 -0.269958 -62.0984 -179.999 -89.9981 -179.999 -4.33681e-019 8.7983 -4.7612 -0.0640843 8.88478 -0.107111 0 8.0291 0.4195 -0.1132 17.7697 -0.207844 0 9.9351 -2.2114 -0.1132 17.7697 -0.207845 -1.11022e-016 22.3885 -0.4656 1.20398e-006 -11.3223 1.47284e-006 -0.0001 12.643 3.4389 1.22645e-007 -27.2425 2.36888e-007 2.2603 21.606 7.4023 -3.12558 1.32825 -3.08398 13.5163 -1.1332 -5.0146 7.5142 33.9067 23.4857 -0.0995 -28.05 -0.2431 -32.3374 -71.2847 -59.2573 0.0679 -23.3996 -0.1402 -4.29645 -2.06672 -23.6288 0.7932 -9.069 2.5189 4.40138e-006 -4.83541e-006 -4.69714e-006 -0.8272 -3.3923 0.5977 -1.19271e-015 7.95139e-015 5.96354e-016 -0.5649 -2.3158 0.4082 -1.59028e-015 6.36111e-015 5.96354e-016 0.9159 -9.2044 0.2193 4.40138e-006 -4.83541e-006 -4.69714e-006 0.0117 -4.1944 -0.0248 -0.0128367 0.00234166 8.95748e-005 0.0071 -2.3249 -0.0142 -7.95139e-016 -1.59028e-015 2.08724e-015 0.6113 -8.7231 -2.0637 4.40138e-006 -4.83541e-006 -4.69714e-006 -0.1927 -3.8059 -0.2383 -0.0160189 0.00299329 0.000852225 -0.1091 -2.1688 -0.1362 3.97569e-016 0 -1.54058e-015 -0.6151 -8.0947 -3.5641 4.40138e-006 -4.83541e-006 -4.69714e-006 -0.4882 -2.341 -0.6462 -0.0125528 0.00311803 0.00282141 -0.3575 -1.7167 -0.4742 -1.98785e-015 3.18055e-015 1.29707e-014 -1.42 -1.8761 1.4223 4.40138e-006 -4.83541e-006 -4.69714e-006 -1.1471 -3.4929 2.6334 -1.19271e-015 7.95139e-015 5.96354e-016 -0.823 -2.3 1.6571 -1.59028e-015 6.36111e-015 5.96354e-016 -2.2603 21.606 7.4023 2.29718 1.85286 -2.83235 -13.5187 -1.1334 -5.0155 -10.2875 34.1949 -16.8379 0.0994 -28.0499 -0.2431 24.8316 -72.6793 51.3544 -0.0679 -23.3996 -0.1402 4.1329 -2.94277 23.9804 -0.7932 -9.0691 2.5189 7.95139e-016 0 -2.08724e-015 0.8272 -3.3923 0.5977 -1.6609e-006 3.12635e-006 -3.78372e-007 0.565 -2.3158 0.4082 1.6609e-006 -3.12635e-006 3.78372e-007 -0.916 -9.2044 0.2193 7.95139e-016 0 -2.08724e-015 -0.0117 -4.1944 -0.0248 0.0129463 0.0023256 -8.4543e-005 -0.0071 -2.3249 -0.0142 7.95139e-016 0 -9.44227e-015 -0.6113 -8.7231 -2.0637 7.95139e-016 0 -2.08724e-015 0.1927 -3.8059 -0.2383 0.0163462 0.00303574 -0.000870088 0.1091 -2.1688 -0.1362 1.59028e-015 0 1.6201e-014 0.6151 -8.0947 -3.564 7.95139e-016 0 -2.08724e-015 0.4882 -2.341 -0.6462 0.0146037 0.00368309 -0.00326591 0.3574 -1.7166 -0.4742 2.46144e-006 -7.74927e-008 1.55006e-006 1.4199 -1.8761 1.4221 7.95139e-016 0 -2.08724e-015 1.1472 -3.4929 2.6336 -1.6609e-006 3.12635e-006 -3.78372e-007 0.8229 -2.3 1.6571 1.6609e-006 -3.12635e-006 3.78372e-007 -9.412 3.9771 -0.7758 -34.0273 -38.9022 2.44367 -0.7531 -40.938 7.10543e-015 171.235 75.0358 -173.536 0 -40.1986 3.55271e-015 1.13941 11.2639 -7.23064 0 -4.4182 9.239 -1.48646e-007 -1.0596e-006 2.58829e-006 9.4119 3.9773 -0.7758 35.0799 -38.8859 -1.25925 0.7532 -40.9383 -7.10543e-015 -171.236 75.0376 173.528 0 -40.1986 3.55271e-015 -0.213116 11.2361 6.55252 0 -4.4182 9.239 -2.07985e-007 1.86618e-007 4.61284e-008 
0.00208521 -0.270378 -62.0984 180 -89.9981 180 0 8.7983 -4.7612 -0.0654418 9.17232 -0.106111 -1.38778e-017 8.0291 0.4195 -0.115686 18.3447 -0.205484 -5.55112e-017 9.9351 -2.2114 -0.115686 18.3448 -0.205485 0 22.3885 -0.4656 1.49488e-006 -11.5847 1.86642e-006 -0.0001 12.643 3.4389 -7.89265e-008 -27.5628 -2.70435e-007 2.2603 21.606 7.4023 -3.45516 0.615177 -3.48733 13.5163 -1.1332 -5.0146 7.69606 33.9168 23.4069 -0.0995 -28.05 -0.2431 -32.3376 -71.2847 -59.2574 0.0679 -23.3996 -0.1402 -3.71414 -2.6549 -23.1668 0.7932 -9.069 2.5189 6.5711e-006 -7.44724e-006 -7.05571e-006 -0.8272 -3.3923 0.5977 -1.59028e-015 -1.59028e-015 6.75868e-015 -0.5649 -2.3158 0.4082 3.53376e-006 -4.19041e-008 8.7056e-006 0.9159 -9.2044 0.2193 6.5711e-006 -7.44724e-006 -7.05571e-006 0.0117 -4.1944 -0.0248 -0.0128143 0.00232775 8.93877e-005 0.0071 -2.3249 -0.0142 1.68415e-006 2.40713e-006 2.7505e-007 0.6113 -8.7231 -2.0637 6.5711e-006 -7.44724e-006 -7.05571e-006 -0.1927 -3.8059 -0.2383 -0.0160501 0.00299691 0.000855694 -0.1091 -2.1688 -0.1362 2.35676e-006 -1.79941e-007 5.80379e-006 -0.6151 -8.0947 -3.5641 6.5711e-006 -7.44724e-006 -7.05571e-006 -0.4882 -2.341 -0.6462 -0.0125716 0.0031167 0.0028245 -0.3575 -1.7167 -0.4742 1.43596e-006 1.93311e-007 2.38703e-006 -1.42 -1.8761 1.4223 6.5711e-006 -7.44724e-006 -7.05571e-006 -1.1471 -3.4929 2.6334 -1.59028e-015 -1.59028e-015 6.75868e-015 -0.823 -2.3 1.6571 3.53376e-006 -4.19041e-008 8.7056e-006 -2.2603 21.606 7.4023 2.7229 1.11811 -2.32677 -13.5187 -1.1334 -5.0155 -10.6495 34.1812 -16.6849 0.0994 -28.0499 -0.2431 24.8776 -72.6791 51.3989 -0.0679 -23.3996 -0.1402 3.48826 -3.48624 23.3932 -0.7932 -9.0691 2.5189 2.38542e-015 0 -5.06901e-015 0.8272 -3.3923 0.5977 -4.68978e-031 -3.18055e-015 -8.44835e-015 0.565 -2.3158 0.4082 2.38542e-015 3.18055e-015 -4.27387e-015 -0.916 -9.2044 0.2193 2.38542e-015 0 -5.06901e-015 -0.0117 -4.1944 -0.0248 0.0129354 0.0023126 -8.1453e-005 -0.0071 -2.3249 -0.0142 3.97569e-015 -1.59028e-015 3.77691e-015 -0.6113 -8.7231 -2.0637 2.38542e-015 0 -5.06901e-015 0.1927 -3.8059 -0.2383 0.0163534 0.00304667 -0.000879186 0.1091 -2.1688 -0.1362 2.38542e-015 4.77083e-015 -7.55382e-015 0.6151 -8.0947 -3.564 2.38542e-015 0 -5.06901e-015 0.4882 -2.341 -0.6462 0.0145602 0.00366671 -0.00325898 0.3574 -1.7166 -0.4742 5.51738e-032 -1.59028e-015 1.98785e-015 1.4199 -1.8761 1.4221 2.38542e-015 0 -5.06901e-015 1.1472 -3.4929 2.6336 -4.68978e-031 -3.18055e-015 -8.44835e-015 0.8229 -2.3 1.6571 2.38542e-015 3.18055e-015 -4.27387e-015 -9.412 3.9771 -0.7758 -33.6562 -38.8869 2.88716 -0.7531 -40.938 -3.55271e-015 171.236 75.0343 -173.539 0 -40.1986 -3.55271e-015 1.47492 11.2725 -7.46091 0 -4.4182 9.239 -5.67067e-022 3.40512e-006 9.54166e-015 9.4119 3.9773 -0.7758 34.7518 -38.876 -1.65442 0.7532 -40.9383 7.10543e-015 -171.237 75.0361 173.531 0 -40.1986 -1.77636e-015 -0.510575 11.2472 6.75503 0 -4.4182 9.239 -1.15145e-006 -2.97287e-006 -4.85395e-006 
0.0021662 -0.27079 -62.0985 180 -89.9981 180 -8.67362e-019 8.7983 -4.7612 -0.0668022 9.45939 -0.105092 0 8.0291 0.4195 -0.118201 18.9189 -0.203069 0 9.9351 -2.2114 -0.118201 18.919 -0.203069 1.11022e-016 22.3885 -0.4656 1.62926e-006 -11.8469 1.71142e-006 -0.0001 12.643 3.4389 -1.15708e-007 -27.8828 -9.46076e-008 2.2603 21.606 7.4023 -3.78962 -0.0952747 -3.89462 13.5163 -1.1332 -5.0146 7.87799 33.9266 23.3281 -0.0995 -28.05 -0.2431 -32.3375 -71.2846 -59.2573 0.0679 -23.3996 -0.1402 -3.12704 -3.23811 -22.6989 0.7932 -9.069 2.5189 -3.97569e-016 3.18055e-015 7.85199e-015 -0.8272 -3.3923 0.5977 -7.95139e-016 1.59028e-015 -8.05078e-015 -0.5649 -2.3158 0.4082 -3.97569e-016 1.59028e-015 -1.63997e-015 0.9159 -9.2044 0.2193 -3.97569e-016 3.18055e-015 7.85199e-015 0.0117 -4.1944 -0.0248 -0.0128196 0.0023275 8.25183e-005 0.0071 -2.3249 -0.0142 -7.95139e-016 9.54166e-015 2.03754e-015 0.6113 -8.7231 -2.0637 -3.97569e-016 3.18055e-015 7.85199e-015 -0.1927 -3.8059 -0.2383 -0.0160739 0.00300757 0.000852194 -0.1091 -2.1688 -0.1362 1.19271e-015 1.59028e-015 9.34288e-015 -0.6151 -8.0947 -3.5641 -3.97569e-016 3.18055e-015 7.85199e-015 -0.4882 -2.341 -0.6462 -0.0126085 0.00312804 0.00283047 -0.3575 -1.7167 -0.4742 -7.95139e-016 1.59028e-015 3.08116e-015 -1.42 -1.8761 1.4223 -3.97569e-016 3.18055e-015 7.85199e-015 -1.1471 -3.4929 2.6334 -7.95139e-016 1.59028e-015 -8.05078e-015 -0.823 -2.3 1.6571 -3.97569e-016 1.59028e-015 -1.63997e-015 -2.2603 21.606 7.4023 3.15483 0.387515 -1.81607 -13.5187 -1.1334 -5.0155 -11.0114 34.1666 -16.532 0.0994 -28.0499 -0.2431 24.9235 -72.6789 51.4434 -0.0679 -23.3996 -0.1402 2.838 -4.02284 22.7998 -0.7932 -9.0691 2.5189 1.59028e-015 0 -4.17448e-015 0.8272 -3.3923 0.5977 -1.47672e-006 -6.87259e-007 -6.21244e-006 0.565 -2.3158 0.4082 -3.04674e-006 7.27337e-007 -2.88224e-006 -0.916 -9.2044 0.2193 1.59028e-015 0 -4.17448e-015 -0.0117 -4.1944 -0.0248 0.012952 0.00231348 -8.72855e-005 -0.0071 -2.3249 -0.0142 -4.99257e-006 2.10095e-006 -1.09007e-006 -0.6113 -8.7231 -2.0637 1.59028e-015 0 -4.17448e-015 0.1927 -3.8059 -0.2383 0.0163286 0.00303115 -0.000882607 0.1091 -2.1688 -0.1362 1.84832e-031 -1.59028e-015 6.65929e-015 0.6151 -8.0947 -3.564 1.59028e-015 0 -4.17448e-015 0.4882 -2.341 -0.6462 0.0145946 0.00368473 -0.00326558 0.3574 -1.7166 -0.4742 -1.38176e-006 3.14134e-007 -2.51918e-006 1.4199 -1.8761 1.4221 1.59028e-015 0 -4.17448e-015 1.1472 -3.4929 2.6336 -1.47672e-006 -6.87259e-007 -6.21244e-006 0.8229 -2.3 1.6571 -3.04674e-006 7.27337e-007 -2.88224e-006 -9.412 3.9771 -0.7758 -33.2856 -38.8691 3.33023 -0.7531 -40.938 3.55271e-015 171.237 75.0331 -173.541 0 -40.1986 -1.77636e-015 1.81043 11.2797 -7.69122 0 -4.4182 9.239 3.18055e-015 4.77083e-015 6.36111e-015 9.4119 3.9773 -0.7758 34.4242 -38.864 -2.04914 0.7532 -40.9383 0 -171.238 75.0349 173.533 0 -40.1986 3.55271e-015 -0.808046 11.2572 6.95759 0 -4.4182 9.239 5.61294e-007 2.28961e-006 2.26511e-006 
